# xmcd
#
# Track frame offsets:
# 150
# 478
# 14388
# 30608
# 33075
# 47741
# 59001
# 71529
# 82347
# 95888
# 111574
# 136635
# 151843
# 169388
# 175038
# 198238
# 217228
# 242045
# 257809
#
# Disc length: 3679 seconds
#
# Revision: 0
# Processed by: cddbd v1.4PL0 Copyright (c) Steve Scherf et al.
# Submitted via: Audion 2.6.0 (http://www.panic.com/audion/)
#
DISCID=0c0e5d13
DTITLE= Blues Brothers 2000
DYEAR=1900
DGENRE=
TTITLE0=blank
TTITLE1=Born in Chicago - Paul Butterfield Blues Band
TTITLE2=The Blues Don't Bother Me - Matt "Guitar" Murphy
TTITLE3=Harmonica Musings - John Popper
TTITLE4=Cheaper to Keep Her
TTITLE5=Perry Mason Theme
TTITLE6=Looking for a Fox
TTITLE7=Can't Turn you Loose
TTITLE8=R-E-S-P-E-C-T - Aretha Franklin
TTITLE9=684-5789 (feat. Jonny Lang)
TTITLE10=Maybe I'm Wrong - Blues Traveler
TTITLE11=Riders in the Sky - (a cowboy legend)
TTITLE12=John the Revelator
TTITLE13=Let There Be Drums - Carl LaFong Trio
TTITLE14=Season of the Witch (feat. Dr. John)
TTITLE15=Funky Nassau
TTITLE16=How Blue Can You Get - Lousiana Gator Boys
TTITLE17=Turn Your Love Light On 
TTITLE18=New Orleans - Lousiana Gator Boys and Blues Brothers Band
EXTD=
EXTT0=
EXTT1=
EXTT2=
EXTT3=
EXTT4=
EXTT5=
EXTT6=
EXTT7=
EXTT8=
EXTT9=
EXTT10=
EXTT11=
EXTT12=
EXTT13=
EXTT14=
EXTT15=
EXTT16=
EXTT17=
EXTT18=
PLAYORDER=
